# xmcd CD database file
#
# Track frame offsets:
#	150
#	24076
#	36227
#	49360
#	60693
#	69851
#	95734
#	107354
#	130080
#	147488
#	162619
#	175677
#	191135
#	198352
#	214710
#
# Disc length: 3397 seconds
#
# Revision: 0
# Processed by: cddbd v1.5.2PL0 Copyright (c) Steve Scherf et al.
# Submitted via: CDex 1.51
#
DISCID=d70d430f
DTITLE=Svata Karasek - Rany Zni
DYEAR=2000
DGENRE=Blues
TTITLE0=Aj obesel ja cirkvi pet
TTITLE1=To ja o Pane muj
TTITLE2=Byl jsi tam
TTITLE3=Zpivam Pane mec v ruce mam
TTITLE4=Tva svoboda
TTITLE5=Neberte nam starou viru
TTITLE6=Vem to kladivo
TTITLE7=Hora Karmel
TTITLE8=Mha za mnou
TTITLE9=Baltazar
TTITLE10=Ceskou zem
TTITLE11=Ten den
TTITLE12=Americka vlajka
TTITLE13=Omaha Beach
TTITLE14=Rany zni
EXTD=YEAR: 2000
EXTT0=
EXTT1=
EXTT2=
EXTT3=
EXTT4=
EXTT5=
EXTT6=
EXTT7=
EXTT8=
EXTT9=
EXTT10=
EXTT11=
EXTT12=
EXTT13=
EXTT14=
PLAYORDER=
